<?xml version="1.0" encoding="UTF-8" standalone="no"?>
<!-- Created with Inkscape (http://www.inkscape.org/) -->

<svg
   version="1.1"
   id="svg2"
   width="297mm"
   height="210mm"
   viewBox="0 0 1122.5197 793.70079"
   sodipodi:docname="Logo Alura.svg"
   inkscape:version="1.2.2 (732a01da63, 2022-12-09)"
   inkscape:export-filename="logo_a.png"
   inkscape:export-xdpi="12.828283"
   inkscape:export-ydpi="12.828283"
   xmlns:inkscape="http://www.inkscape.org/namespaces/inkscape"
   xmlns:sodipodi="http://sodipodi.sourceforge.net/DTD/sodipodi-0.dtd"
   xmlns="http://www.w3.org/2000/svg"
   xmlns:svg="http://www.w3.org/2000/svg">
  <defs
     id="defs6" />
  <sodipodi:namedview
     id="namedview4"
     pagecolor="#ffffff"
     bordercolor="#000000"
     borderopacity="0.25"
     inkscape:showpageshadow="2"
     inkscape:pageopacity="0.0"
     inkscape:pagecheckerboard="0"
     inkscape:deskcolor="#d1d1d1"
     showgrid="false"
     inkscape:zoom="0.35355339"
     inkscape:cx="127.27922"
     inkscape:cy="578.41334"
     inkscape:current-layer="g8"
     inkscape:document-units="mm">
    <inkscape:grid
       type="xygrid"
       id="grid1586"
       originx="0"
       originy="0" />
  </sodipodi:namedview>
  <g
     inkscape:groupmode="layer"
     inkscape:label="Image"
     id="g8">
    <path
       style="fill:#0a3871;fill-opacity:1;stroke-width:13.0918"
       d="m 524.77994,339.2966 c 72.49359,-24.22128 101.48743,-44.29283 112.6094,-56.88581 18.40696,-20.84147 23.89372,-27.4494 24.14943,-64.99762 0.29515,-43.202 -41.91611,-69.51519 -106.3615,-68.41331 -36.68401,0.62722 -95.37143,12.90762 -96.90382,65.58277 l 0.0166,15.66249 -98.54336,-0.146 -0.0299,-39.75592 c -0.0387,-51.47637 45.8335,-93.658199 64.29792,-102.602949 36.63238,-17.745882 62.0115,-27.817564 130.15123,-27.759357 66.03535,0.05641 100.83553,7.780337 139.49377,26.873616 27.07944,13.37452 65.91309,58.98305 66.05196,102.17864 l -0.41728,169.00175 0.1832,184.85353 C 760.04348,621.83504 730.74736,692.79048 562.68205,692.87206 356.16647,692.9723 359.68358,594.04778 359.94885,516.73447 360.32831,406.14026 451.57383,364.11511 524.77994,339.2966 Z m 138.34241,33.58285 c 0,0 -54.20678,25.24621 -101.92333,43.73123 -36.81656,14.26246 -103.37121,33.7455 -104.49749,97.89954 -1.07357,61.15173 40.17912,83.80618 104.25882,83.51408 70.45172,-0.32059 100.56509,-26.71366 102.33843,-85.23124 z"
       id="path2475"
       sodipodi:nodetypes="cssscccsssscccsscsssccs"
       inkscape:export-filename="logo_a.png"
       inkscape:export-xdpi="12.000153"
       inkscape:export-ydpi="12.000153" />
  </g>
</svg>
